<mxfile host="app.diagrams.net" modified="2020-06-20T10:42:11.138Z" agent="5.0 (Windows NT 10.0; Win64; x64) AppleWebKit/537.36 (KHTML, like Gecko) Chrome/83.0.4103.106 Safari/537.36" etag="M7A-kE8w9uoWtr12K4Iz" version="13.3.0" type="github">
  <diagram id="9gEZrDbee1CZRMEXm1SG" name="Page-1">
    <mxGraphModel dx="1278" dy="1112" grid="1" gridSize="10" guides="1" tooltips="1" connect="1" arrows="1" fold="1" page="1" pageScale="1" pageWidth="850" pageHeight="1100" math="0" shadow="0">
      <root>
        <mxCell id="0" />
        <mxCell id="1" parent="0" />
        <mxCell id="U9adozjTh0LEUF88zTxM-1" value="" style="rounded=0;whiteSpace=wrap;html=1;strokeColor=none;" vertex="1" parent="1">
          <mxGeometry x="430" y="140" width="940" height="610" as="geometry" />
        </mxCell>
        <mxCell id="U9adozjTh0LEUF88zTxM-4" value="" style="line;strokeWidth=2;html=1;perimeter=backbonePerimeter;points=[];outlineConnect=0;fillColor=#1ba1e2;strokeColor=#006EAF;fontColor=#ffffff;" vertex="1" parent="1">
          <mxGeometry x="430" y="315" width="940" height="10" as="geometry" />
        </mxCell>
        <mxCell id="U9adozjTh0LEUF88zTxM-5" value="&lt;i&gt;&lt;font style=&quot;font-size: 30px&quot;&gt;UI&lt;/font&gt;&lt;/i&gt;" style="text;html=1;strokeColor=none;fillColor=none;align=center;verticalAlign=middle;whiteSpace=wrap;rounded=0;fontStyle=1" vertex="1" parent="1">
          <mxGeometry x="470" y="220" width="40" height="20" as="geometry" />
        </mxCell>
        <mxCell id="U9adozjTh0LEUF88zTxM-6" value="&lt;i&gt;&lt;font style=&quot;font-size: 30px&quot;&gt;SDK&lt;/font&gt;&lt;/i&gt;" style="text;html=1;strokeColor=none;fillColor=none;align=center;verticalAlign=middle;whiteSpace=wrap;rounded=0;fontStyle=1" vertex="1" parent="1">
          <mxGeometry x="470" y="450" width="40" height="20" as="geometry" />
        </mxCell>
        <mxCell id="U9adozjTh0LEUF88zTxM-7" value="&lt;i&gt;&lt;font style=&quot;font-size: 30px&quot;&gt;SERVER&lt;/font&gt;&lt;/i&gt;" style="text;html=1;strokeColor=none;fillColor=none;align=center;verticalAlign=middle;whiteSpace=wrap;rounded=0;fontStyle=1" vertex="1" parent="1">
          <mxGeometry x="470" y="650" width="40" height="20" as="geometry" />
        </mxCell>
        <mxCell id="U9adozjTh0LEUF88zTxM-8" value="" style="line;strokeWidth=2;html=1;perimeter=backbonePerimeter;points=[];outlineConnect=0;fillColor=#1ba1e2;strokeColor=#006EAF;fontColor=#ffffff;" vertex="1" parent="1">
          <mxGeometry x="425" y="600" width="940" height="10" as="geometry" />
        </mxCell>
      </root>
    </mxGraphModel>
  </diagram>
</mxfile>
